<svg width="85" height="85" viewBox="0 0 85 85" fill="none" xmlns="http://www.w3.org/2000/svg">
<g clip-path="url(#clip0)">
<path d="M74.375 79.5161H68.8911V12.3387C68.8911 10.8245 67.6636 9.59677 66.1492 9.59677H45.5847V2.74194C45.5847 1.2277 44.3571 0 42.8427 0H23.8206C22.3063 0 21.0786 1.2277 21.0786 2.74194V9.59677H18.8508C17.3366 9.59677 16.1089 10.8245 16.1089 12.3387V79.5161H10.625C9.11077 79.5161 7.88306 80.7438 7.88306 82.2581C7.88306 83.7723 9.11077 85 10.625 85H74.375C75.8894 85 77.1169 83.7723 77.1169 82.2581C77.1169 80.7438 75.8894 79.5161 74.375 79.5161ZM26.5625 5.48387H40.1008V9.59677H26.5625V5.48387ZM37.0161 79.5161V67.8629H47.9839V79.5161H37.0161ZM53.4677 79.5161V67.8629H54.6673C56.1817 67.8629 57.4093 66.6352 57.4093 65.121C57.4093 63.6067 56.1817 62.379 54.6673 62.379C45.1299 62.379 39.1665 62.379 30.3327 62.379C28.8184 62.379 27.5907 63.6067 27.5907 65.121C27.5907 66.6352 28.8184 67.8629 30.3327 67.8629H31.5323V79.5161H21.5927V15.0806H63.4073V79.5161H53.4677ZM38.5585 23.1351C38.5585 24.6493 37.3308 25.877 35.8165 25.877H32.7319C31.2176 25.877 29.9899 24.6493 29.9899 23.1351C29.9899 21.6208 31.2176 20.3931 32.7319 20.3931H35.8165C37.3308 20.3931 38.5585 21.6208 38.5585 23.1351ZM54.8387 23.1351C54.8387 24.6493 53.6112 25.877 52.0968 25.877H49.0121C47.4977 25.877 46.2702 24.6493 46.2702 23.1351C46.2702 21.6208 47.4977 20.3931 49.0121 20.3931H52.0968C53.6112 20.3931 54.8387 21.6208 54.8387 23.1351ZM38.5585 33.4173C38.5585 34.9316 37.3308 36.1593 35.8165 36.1593H32.7319C31.2176 36.1593 29.9899 34.9316 29.9899 33.4173C29.9899 31.9031 31.2176 30.6754 32.7319 30.6754H35.8165C37.3308 30.6754 38.5585 31.9031 38.5585 33.4173ZM54.8387 33.4173C54.8387 34.9316 53.6112 36.1593 52.0968 36.1593H49.0121C47.4977 36.1593 46.2702 34.9316 46.2702 33.4173C46.2702 31.9031 47.4977 30.6754 49.0121 30.6754H52.0968C53.6112 30.6754 54.8387 31.9031 54.8387 33.4173ZM38.5585 43.6996C38.5585 45.2138 37.3308 46.4415 35.8165 46.4415H32.7319C31.2176 46.4415 29.9899 45.2138 29.9899 43.6996C29.9899 42.1854 31.2176 40.9577 32.7319 40.9577H35.8165C37.3308 40.9577 38.5585 42.1854 38.5585 43.6996ZM54.8387 43.6996C54.8387 45.2138 53.6112 46.4415 52.0968 46.4415H49.0121C47.4977 46.4415 46.2702 45.2138 46.2702 43.6996C46.2702 42.1854 47.4977 40.9577 49.0121 40.9577H52.0968C53.6112 40.9577 54.8387 42.1854 54.8387 43.6996ZM38.5585 53.9819C38.5585 55.4961 37.3308 56.7238 35.8165 56.7238H32.7319C31.2176 56.7238 29.9899 55.4961 29.9899 53.9819C29.9899 52.4676 31.2176 51.2399 32.7319 51.2399H35.8165C37.3308 51.2399 38.5585 52.4676 38.5585 53.9819ZM54.8387 53.9819C54.8387 55.4961 53.6112 56.7238 52.0968 56.7238H49.0121C47.4977 56.7238 46.2702 55.4961 46.2702 53.9819C46.2702 52.4676 47.4977 51.2399 49.0121 51.2399H52.0968C53.6112 51.2399 54.8387 52.4676 54.8387 53.9819Z" fill="url(#paint0_linear)"/>
</g>
<defs>
<linearGradient id="paint0_linear" x1="19.5" y1="-2.04478e-07" x2="62.5" y2="85" gradientUnits="userSpaceOnUse">
<stop stop-color="#7CE5C7"/>
<stop offset="1" stop-color="#396AD1"/>
</linearGradient>
<clipPath id="clip0">
<rect width="85" height="85" fill="white"/>
</clipPath>
</defs>
</svg>
