<svg width="84" height="84" viewBox="0 0 84 84" fill="none" xmlns="http://www.w3.org/2000/svg">
<g clip-path="url(#clip0)">
<path d="M25.7962 57.4578C27.1555 57.4578 28.2572 56.3561 28.2572 54.9968C28.2572 53.6375 27.1555 52.5359 25.7962 52.5359H24.7087V51.083C24.7087 49.7238 23.607 48.6221 22.2478 48.6221C20.8885 48.6221 19.7868 49.7238 19.7868 51.083V52.6102C17.7694 52.989 16.2383 54.7623 16.2383 56.8868V60.1962C16.2383 62.5956 18.1911 64.5477 20.5918 64.5477H23.3353V66.7158H18.6993C17.34 66.7158 16.2383 67.8174 16.2383 69.1767C16.2383 70.5353 17.34 71.6376 18.6993 71.6376H19.7868V73.0905C19.7868 74.4491 20.8885 75.5514 22.2478 75.5514C23.607 75.5514 24.7087 74.4491 24.7087 73.0905V71.5627C26.7262 71.1845 28.2572 69.4106 28.2572 67.2861V63.9767C28.2572 61.5773 26.3045 59.6258 23.9038 59.6258H21.1602V57.4578H25.7962Z" fill="#396AD1"/>
<path d="M84 22.2177C84 9.9668 74.0197 0 61.7522 0C55.0141 0 48.9662 3.00696 44.8833 7.74747C43.9143 7.66287 42.9376 7.61993 41.9654 7.61993C23.7666 7.61993 8.96063 22.4176 8.96063 40.6074C8.96063 41.6905 9.01382 42.7774 9.11957 43.8547C3.59399 47.9018 0 54.4303 0 61.7823C0 74.0332 9.98026 84 22.2478 84C30.1766 84 37.1505 79.8363 41.0912 73.5827C41.3828 73.5904 41.6744 73.5942 41.9654 73.5942C60.1642 73.5942 74.9702 58.7965 74.9702 40.6074C74.9702 40.4324 74.9682 40.2575 74.9657 40.0825C80.4432 36.0316 84 29.5319 84 22.2177ZM61.7522 4.92188C71.3057 4.92188 79.0781 12.6809 79.0781 22.2177C79.0781 31.7551 71.3057 39.5141 61.7522 39.5141C52.1988 39.5141 44.4263 31.7551 44.4263 22.2177C44.4263 12.6809 52.1988 4.92188 61.7522 4.92188ZM22.2478 79.0781C12.6943 79.0781 4.92188 71.3191 4.92188 61.7823C4.92188 52.2449 12.6943 44.4859 22.2478 44.4859C31.8012 44.4859 39.5737 52.2449 39.5737 61.7823C39.5737 71.3191 31.8012 79.0781 22.2478 79.0781ZM43.4125 68.6358C44.1155 66.4761 44.4955 64.1728 44.4955 61.7817C44.4955 49.5309 34.5153 39.5641 22.2478 39.5641C19.2927 39.5641 16.471 40.1428 13.8889 41.1919C13.8851 40.997 13.8825 40.8016 13.8825 40.6074C13.8825 25.2118 26.3513 12.6713 41.727 12.5431C40.3036 15.4693 39.5045 18.7518 39.5045 22.2177C39.5045 34.4685 49.4847 44.4359 61.7522 44.4359C64.649 44.4359 67.4175 43.8803 69.9573 42.8703C68.839 56.8156 57.4751 67.9187 43.4125 68.6358Z" fill="url(#paint0_linear)"/>
<path d="M58.2037 27.1511C56.8445 27.1511 55.7428 28.2534 55.7428 29.612C55.7428 30.9713 56.8445 32.0729 58.2037 32.0729H59.2913V33.5258C59.2913 34.8851 60.3929 35.9867 61.7522 35.9867C63.1115 35.9867 64.2132 34.8851 64.2132 33.5258V31.9986C66.2306 31.6205 67.7617 29.8466 67.7617 27.7221V24.4126C67.7617 22.0132 65.8089 20.0611 63.4089 20.0611H60.6647V17.8937H65.3007C66.66 17.8937 67.7617 16.7914 67.7617 15.4328C67.7617 14.0735 66.66 12.9718 65.3007 12.9718H64.2132V11.519C64.2132 10.1597 63.1115 9.05804 61.7522 9.05804C60.3929 9.05804 59.2913 10.1597 59.2913 11.519V13.0462C57.2738 13.4243 55.7428 15.1982 55.7428 17.3227V20.6321C55.7428 23.0316 57.6955 24.983 60.0962 24.983H62.8398V27.1511H58.2037Z" fill="#7CE5C7"/>
</g>
<defs>
<linearGradient id="paint0_linear" x1="42" y1="0" x2="42" y2="84" gradientUnits="userSpaceOnUse">
<stop stop-color="#7CE5C7"/>
<stop offset="1" stop-color="#396AD1"/>
</linearGradient>
<clipPath id="clip0">
<rect width="84" height="84" fill="white"/>
</clipPath>
</defs>
</svg>
