<svg width="82" height="86" viewBox="0 0 82 86" fill="none" xmlns="http://www.w3.org/2000/svg">
<g clip-path="url(#clip0)">
<path d="M44.5728 20.7615C48.5813 20.7615 51.8309 17.391 51.8309 13.2334C51.8309 9.07567 48.5813 5.7052 44.5728 5.7052C40.5643 5.7052 37.3147 9.07567 37.3147 13.2334C37.3147 17.391 40.5643 20.7615 44.5728 20.7615Z" fill="url(#paint0_linear)"/>
<path d="M58.9374 36.6521C58.432 32.9214 58.3114 29.1337 57.3368 25.485C56.039 20.6336 49.2783 22.1367 49.2663 26.514C49.1805 26.4125 49.0826 26.3207 48.9968 26.2192C48.3117 25.4072 47.5395 24.997 46.766 24.8774C45.3423 22.102 42.4278 20.3221 39.2117 20.5905C38.4247 20.6572 37.6753 20.845 36.9755 21.13C34.1026 15.4651 32.1721 9.45539 31.0125 3.07996C30.0284 -2.31517 22.1175 -0.0236293 23.0948 5.34369C24.6445 13.8605 27.5832 21.9782 32.0327 29.327C32.0327 29.3353 32.0327 29.3437 32.0327 29.3534C32.4228 34.2897 31.9348 42.431 31.6332 46.241C31.4937 46.469 31.3597 46.7054 31.2524 46.971V46.9696C26.9745 57.5249 25.3323 69.6069 24.4984 80.9562C24.0989 86.4361 32.3129 86.3958 32.711 80.9562C33.325 72.6021 34.5115 63.8934 36.9259 55.7492C37.4487 55.9258 37.9957 56.0496 38.5655 56.1094C39.2425 64.6554 39.8109 73.2083 40.9853 81.7015C41.7387 87.1188 49.6483 84.8037 48.9056 79.435C47.6776 70.5622 47.258 61.581 46.5046 52.6595C46.4764 52.3258 46.4201 52.013 46.337 51.7196C46.7741 50.8255 47.0623 49.8354 47.1561 48.7759C47.187 48.431 47.6723 42.9372 47.8117 36.9511C49.2193 38.2415 50.6592 39.4985 52.0735 40.793C55.3647 43.8062 59.4992 40.8 58.9374 36.6521Z" fill="url(#paint1_linear)"/>
</g>
<defs>
<linearGradient id="paint0_linear" x1="42.5256" y1="5.14881" x2="51.8698" y2="32.6093" gradientUnits="userSpaceOnUse">
<stop stop-color="#7CE5C7"/>
<stop offset="1" stop-color="#396AD1"/>
</linearGradient>
<linearGradient id="paint1_linear" x1="26.1256" y1="-1.60195e-05" x2="53.5861" y2="85.0511" gradientUnits="userSpaceOnUse">
<stop stop-color="#7CE5C7"/>
<stop offset="1" stop-color="#396AD1"/>
</linearGradient>
<clipPath id="clip0">
<rect width="82" height="85.0512" fill="white"/>
</clipPath>
</defs>
</svg>
